<?xml version="1.0" encoding="utf-8" standalone="no"?>
<!DOCTYPE svg PUBLIC "-//W3C//DTD SVG 1.1//EN"
  "http://www.w3.org/Graphics/SVG/1.1/DTD/svg11.dtd">
<!-- Created with matplotlib (https://matplotlib.org/) -->
<svg height="281.073625pt" version="1.1" viewBox="0 0 384.53875 281.073625" width="384.53875pt" xmlns="http://www.w3.org/2000/svg" xmlns:xlink="http://www.w3.org/1999/xlink">
 <defs>
  <style type="text/css">
*{stroke-linecap:butt;stroke-linejoin:round;}
  </style>
 </defs>
 <g id="figure_1">
  <g id="patch_1">
   <path d="M 0 281.073625 
L 384.53875 281.073625 
L 384.53875 0 
L 0 0 
z
" style="fill:#ffffff;"/>
  </g>
  <g id="axes_1">
   <g id="patch_2">
    <path d="M 42.53875 241.58175 
L 377.33875 241.58175 
L 377.33875 24.14175 
L 42.53875 24.14175 
z
" style="fill:#e5e5e5;"/>
   </g>
   <g id="matplotlib.axis_1">
    <g id="xtick_1">
     <g id="line2d_1">
      <path clip-path="url(#pd1ccaf2e8a)" d="M 53.804157 241.58175 
L 53.804157 24.14175 
" style="fill:none;stroke:#ffffff;stroke-linecap:square;stroke-width:0.8;"/>
     </g>
     <g id="line2d_2">
      <defs>
       <path d="M 0 0 
L 0 3.5 
" id="m779cf2892d" style="stroke:#555555;stroke-width:0.8;"/>
      </defs>
      <g>
       <use style="fill:#555555;stroke:#555555;stroke-width:0.8;" x="53.804157" xlink:href="#m779cf2892d" y="241.58175"/>
      </g>
     </g>
     <g id="text_1">
      <!-- 0 -->
      <defs>
       <path d="M 31.78125 66.40625 
Q 24.171875 66.40625 20.328125 58.90625 
Q 16.5 51.421875 16.5 36.375 
Q 16.5 21.390625 20.328125 13.890625 
Q 24.171875 6.390625 31.78125 6.390625 
Q 39.453125 6.390625 43.28125 13.890625 
Q 47.125 21.390625 47.125 36.375 
Q 47.125 51.421875 43.28125 58.90625 
Q 39.453125 66.40625 31.78125 66.40625 
z
M 31.78125 74.21875 
Q 44.046875 74.21875 50.515625 64.515625 
Q 56.984375 54.828125 56.984375 36.375 
Q 56.984375 17.96875 50.515625 8.265625 
Q 44.046875 -1.421875 31.78125 -1.421875 
Q 19.53125 -1.421875 13.0625 8.265625 
Q 6.59375 17.96875 6.59375 36.375 
Q 6.59375 54.828125 13.0625 64.515625 
Q 19.53125 74.21875 31.78125 74.21875 
z
" id="DejaVuSans-48"/>
      </defs>
      <g style="fill:#555555;" transform="translate(50.622907 256.180187)scale(0.1 -0.1)">
       <use xlink:href="#DejaVuSans-48"/>
      </g>
     </g>
    </g>
    <g id="xtick_2">
     <g id="line2d_3">
      <path clip-path="url(#pd1ccaf2e8a)" d="M 93.331902 241.58175 
L 93.331902 24.14175 
" style="fill:none;stroke:#ffffff;stroke-linecap:square;stroke-width:0.8;"/>
     </g>
     <g id="line2d_4">
      <g>
       <use style="fill:#555555;stroke:#555555;stroke-width:0.8;" x="93.331902" xlink:href="#m779cf2892d" y="241.58175"/>
      </g>
     </g>
     <g id="text_2">
      <!-- 10 -->
      <defs>
       <path d="M 12.40625 8.296875 
L 28.515625 8.296875 
L 28.515625 63.921875 
L 10.984375 60.40625 
L 10.984375 69.390625 
L 28.421875 72.90625 
L 38.28125 72.90625 
L 38.28125 8.296875 
L 54.390625 8.296875 
L 54.390625 0 
L 12.40625 0 
z
" id="DejaVuSans-49"/>
      </defs>
      <g style="fill:#555555;" transform="translate(86.969402 256.180187)scale(0.1 -0.1)">
       <use xlink:href="#DejaVuSans-49"/>
       <use x="63.623047" xlink:href="#DejaVuSans-48"/>
      </g>
     </g>
    </g>
    <g id="xtick_3">
     <g id="line2d_5">
      <path clip-path="url(#pd1ccaf2e8a)" d="M 132.859647 241.58175 
L 132.859647 24.14175 
" style="fill:none;stroke:#ffffff;stroke-linecap:square;stroke-width:0.8;"/>
     </g>
     <g id="line2d_6">
      <g>
       <use style="fill:#555555;stroke:#555555;stroke-width:0.8;" x="132.859647" xlink:href="#m779cf2892d" y="241.58175"/>
      </g>
     </g>
     <g id="text_3">
      <!-- 20 -->
      <defs>
       <path d="M 19.1875 8.296875 
L 53.609375 8.296875 
L 53.609375 0 
L 7.328125 0 
L 7.328125 8.296875 
Q 12.9375 14.109375 22.625 23.890625 
Q 32.328125 33.6875 34.8125 36.53125 
Q 39.546875 41.84375 41.421875 45.53125 
Q 43.3125 49.21875 43.3125 52.78125 
Q 43.3125 58.59375 39.234375 62.25 
Q 35.15625 65.921875 28.609375 65.921875 
Q 23.96875 65.921875 18.8125 64.3125 
Q 13.671875 62.703125 7.8125 59.421875 
L 7.8125 69.390625 
Q 13.765625 71.78125 18.9375 73 
Q 24.125 74.21875 28.421875 74.21875 
Q 39.75 74.21875 46.484375 68.546875 
Q 53.21875 62.890625 53.21875 53.421875 
Q 53.21875 48.921875 51.53125 44.890625 
Q 49.859375 40.875 45.40625 35.40625 
Q 44.1875 33.984375 37.640625 27.21875 
Q 31.109375 20.453125 19.1875 8.296875 
z
" id="DejaVuSans-50"/>
      </defs>
      <g style="fill:#555555;" transform="translate(126.497147 256.180187)scale(0.1 -0.1)">
       <use xlink:href="#DejaVuSans-50"/>
       <use x="63.623047" xlink:href="#DejaVuSans-48"/>
      </g>
     </g>
    </g>
    <g id="xtick_4">
     <g id="line2d_7">
      <path clip-path="url(#pd1ccaf2e8a)" d="M 172.387392 241.58175 
L 172.387392 24.14175 
" style="fill:none;stroke:#ffffff;stroke-linecap:square;stroke-width:0.8;"/>
     </g>
     <g id="line2d_8">
      <g>
       <use style="fill:#555555;stroke:#555555;stroke-width:0.8;" x="172.387392" xlink:href="#m779cf2892d" y="241.58175"/>
      </g>
     </g>
     <g id="text_4">
      <!-- 30 -->
      <defs>
       <path d="M 40.578125 39.3125 
Q 47.65625 37.796875 51.625 33 
Q 55.609375 28.21875 55.609375 21.1875 
Q 55.609375 10.40625 48.1875 4.484375 
Q 40.765625 -1.421875 27.09375 -1.421875 
Q 22.515625 -1.421875 17.65625 -0.515625 
Q 12.796875 0.390625 7.625 2.203125 
L 7.625 11.71875 
Q 11.71875 9.328125 16.59375 8.109375 
Q 21.484375 6.890625 26.8125 6.890625 
Q 36.078125 6.890625 40.9375 10.546875 
Q 45.796875 14.203125 45.796875 21.1875 
Q 45.796875 27.640625 41.28125 31.265625 
Q 36.765625 34.90625 28.71875 34.90625 
L 20.21875 34.90625 
L 20.21875 43.015625 
L 29.109375 43.015625 
Q 36.375 43.015625 40.234375 45.921875 
Q 44.09375 48.828125 44.09375 54.296875 
Q 44.09375 59.90625 40.109375 62.90625 
Q 36.140625 65.921875 28.71875 65.921875 
Q 24.65625 65.921875 20.015625 65.03125 
Q 15.375 64.15625 9.8125 62.3125 
L 9.8125 71.09375 
Q 15.4375 72.65625 20.34375 73.4375 
Q 25.25 74.21875 29.59375 74.21875 
Q 40.828125 74.21875 47.359375 69.109375 
Q 53.90625 64.015625 53.90625 55.328125 
Q 53.90625 49.265625 50.4375 45.09375 
Q 46.96875 40.921875 40.578125 39.3125 
z
" id="DejaVuSans-51"/>
      </defs>
      <g style="fill:#555555;" transform="translate(166.024892 256.180187)scale(0.1 -0.1)">
       <use xlink:href="#DejaVuSans-51"/>
       <use x="63.623047" xlink:href="#DejaVuSans-48"/>
      </g>
     </g>
    </g>
    <g id="xtick_5">
     <g id="line2d_9">
      <path clip-path="url(#pd1ccaf2e8a)" d="M 211.915137 241.58175 
L 211.915137 24.14175 
" style="fill:none;stroke:#ffffff;stroke-linecap:square;stroke-width:0.8;"/>
     </g>
     <g id="line2d_10">
      <g>
       <use style="fill:#555555;stroke:#555555;stroke-width:0.8;" x="211.915137" xlink:href="#m779cf2892d" y="241.58175"/>
      </g>
     </g>
     <g id="text_5">
      <!-- 40 -->
      <defs>
       <path d="M 37.796875 64.3125 
L 12.890625 25.390625 
L 37.796875 25.390625 
z
M 35.203125 72.90625 
L 47.609375 72.90625 
L 47.609375 25.390625 
L 58.015625 25.390625 
L 58.015625 17.1875 
L 47.609375 17.1875 
L 47.609375 0 
L 37.796875 0 
L 37.796875 17.1875 
L 4.890625 17.1875 
L 4.890625 26.703125 
z
" id="DejaVuSans-52"/>
      </defs>
      <g style="fill:#555555;" transform="translate(205.552637 256.180187)scale(0.1 -0.1)">
       <use xlink:href="#DejaVuSans-52"/>
       <use x="63.623047" xlink:href="#DejaVuSans-48"/>
      </g>
     </g>
    </g>
    <g id="xtick_6">
     <g id="line2d_11">
      <path clip-path="url(#pd1ccaf2e8a)" d="M 251.442882 241.58175 
L 251.442882 24.14175 
" style="fill:none;stroke:#ffffff;stroke-linecap:square;stroke-width:0.8;"/>
     </g>
     <g id="line2d_12">
      <g>
       <use style="fill:#555555;stroke:#555555;stroke-width:0.8;" x="251.442882" xlink:href="#m779cf2892d" y="241.58175"/>
      </g>
     </g>
     <g id="text_6">
      <!-- 50 -->
      <defs>
       <path d="M 10.796875 72.90625 
L 49.515625 72.90625 
L 49.515625 64.59375 
L 19.828125 64.59375 
L 19.828125 46.734375 
Q 21.96875 47.46875 24.109375 47.828125 
Q 26.265625 48.1875 28.421875 48.1875 
Q 40.625 48.1875 47.75 41.5 
Q 54.890625 34.8125 54.890625 23.390625 
Q 54.890625 11.625 47.5625 5.09375 
Q 40.234375 -1.421875 26.90625 -1.421875 
Q 22.3125 -1.421875 17.546875 -0.640625 
Q 12.796875 0.140625 7.71875 1.703125 
L 7.71875 11.625 
Q 12.109375 9.234375 16.796875 8.0625 
Q 21.484375 6.890625 26.703125 6.890625 
Q 35.15625 6.890625 40.078125 11.328125 
Q 45.015625 15.765625 45.015625 23.390625 
Q 45.015625 31 40.078125 35.4375 
Q 35.15625 39.890625 26.703125 39.890625 
Q 22.75 39.890625 18.8125 39.015625 
Q 14.890625 38.140625 10.796875 36.28125 
z
" id="DejaVuSans-53"/>
      </defs>
      <g style="fill:#555555;" transform="translate(245.080382 256.180187)scale(0.1 -0.1)">
       <use xlink:href="#DejaVuSans-53"/>
       <use x="63.623047" xlink:href="#DejaVuSans-48"/>
      </g>
     </g>
    </g>
    <g id="xtick_7">
     <g id="line2d_13">
      <path clip-path="url(#pd1ccaf2e8a)" d="M 290.970627 241.58175 
L 290.970627 24.14175 
" style="fill:none;stroke:#ffffff;stroke-linecap:square;stroke-width:0.8;"/>
     </g>
     <g id="line2d_14">
      <g>
       <use style="fill:#555555;stroke:#555555;stroke-width:0.8;" x="290.970627" xlink:href="#m779cf2892d" y="241.58175"/>
      </g>
     </g>
     <g id="text_7">
      <!-- 60 -->
      <defs>
       <path d="M 33.015625 40.375 
Q 26.375 40.375 22.484375 35.828125 
Q 18.609375 31.296875 18.609375 23.390625 
Q 18.609375 15.53125 22.484375 10.953125 
Q 26.375 6.390625 33.015625 6.390625 
Q 39.65625 6.390625 43.53125 10.953125 
Q 47.40625 15.53125 47.40625 23.390625 
Q 47.40625 31.296875 43.53125 35.828125 
Q 39.65625 40.375 33.015625 40.375 
z
M 52.59375 71.296875 
L 52.59375 62.3125 
Q 48.875 64.0625 45.09375 64.984375 
Q 41.3125 65.921875 37.59375 65.921875 
Q 27.828125 65.921875 22.671875 59.328125 
Q 17.53125 52.734375 16.796875 39.40625 
Q 19.671875 43.65625 24.015625 45.921875 
Q 28.375 48.1875 33.59375 48.1875 
Q 44.578125 48.1875 50.953125 41.515625 
Q 57.328125 34.859375 57.328125 23.390625 
Q 57.328125 12.15625 50.6875 5.359375 
Q 44.046875 -1.421875 33.015625 -1.421875 
Q 20.359375 -1.421875 13.671875 8.265625 
Q 6.984375 17.96875 6.984375 36.375 
Q 6.984375 53.65625 15.1875 63.9375 
Q 23.390625 74.21875 37.203125 74.21875 
Q 40.921875 74.21875 44.703125 73.484375 
Q 48.484375 72.75 52.59375 71.296875 
z
" id="DejaVuSans-54"/>
      </defs>
      <g style="fill:#555555;" transform="translate(284.608127 256.180187)scale(0.1 -0.1)">
       <use xlink:href="#DejaVuSans-54"/>
       <use x="63.623047" xlink:href="#DejaVuSans-48"/>
      </g>
     </g>
    </g>
    <g id="xtick_8">
     <g id="line2d_15">
      <path clip-path="url(#pd1ccaf2e8a)" d="M 330.498372 241.58175 
L 330.498372 24.14175 
" style="fill:none;stroke:#ffffff;stroke-linecap:square;stroke-width:0.8;"/>
     </g>
     <g id="line2d_16">
      <g>
       <use style="fill:#555555;stroke:#555555;stroke-width:0.8;" x="330.498372" xlink:href="#m779cf2892d" y="241.58175"/>
      </g>
     </g>
     <g id="text_8">
      <!-- 70 -->
      <defs>
       <path d="M 8.203125 72.90625 
L 55.078125 72.90625 
L 55.078125 68.703125 
L 28.609375 0 
L 18.3125 0 
L 43.21875 64.59375 
L 8.203125 64.59375 
z
" id="DejaVuSans-55"/>
      </defs>
      <g style="fill:#555555;" transform="translate(324.135872 256.180187)scale(0.1 -0.1)">
       <use xlink:href="#DejaVuSans-55"/>
       <use x="63.623047" xlink:href="#DejaVuSans-48"/>
      </g>
     </g>
    </g>
    <g id="xtick_9">
     <g id="line2d_17">
      <path clip-path="url(#pd1ccaf2e8a)" d="M 370.026117 241.58175 
L 370.026117 24.14175 
" style="fill:none;stroke:#ffffff;stroke-linecap:square;stroke-width:0.8;"/>
     </g>
     <g id="line2d_18">
      <g>
       <use style="fill:#555555;stroke:#555555;stroke-width:0.8;" x="370.026117" xlink:href="#m779cf2892d" y="241.58175"/>
      </g>
     </g>
     <g id="text_9">
      <!-- 80 -->
      <defs>
       <path d="M 31.78125 34.625 
Q 24.75 34.625 20.71875 30.859375 
Q 16.703125 27.09375 16.703125 20.515625 
Q 16.703125 13.921875 20.71875 10.15625 
Q 24.75 6.390625 31.78125 6.390625 
Q 38.8125 6.390625 42.859375 10.171875 
Q 46.921875 13.96875 46.921875 20.515625 
Q 46.921875 27.09375 42.890625 30.859375 
Q 38.875 34.625 31.78125 34.625 
z
M 21.921875 38.8125 
Q 15.578125 40.375 12.03125 44.71875 
Q 8.5 49.078125 8.5 55.328125 
Q 8.5 64.0625 14.71875 69.140625 
Q 20.953125 74.21875 31.78125 74.21875 
Q 42.671875 74.21875 48.875 69.140625 
Q 55.078125 64.0625 55.078125 55.328125 
Q 55.078125 49.078125 51.53125 44.71875 
Q 48 40.375 41.703125 38.8125 
Q 48.828125 37.15625 52.796875 32.3125 
Q 56.78125 27.484375 56.78125 20.515625 
Q 56.78125 9.90625 50.3125 4.234375 
Q 43.84375 -1.421875 31.78125 -1.421875 
Q 19.734375 -1.421875 13.25 4.234375 
Q 6.78125 9.90625 6.78125 20.515625 
Q 6.78125 27.484375 10.78125 32.3125 
Q 14.796875 37.15625 21.921875 38.8125 
z
M 18.3125 54.390625 
Q 18.3125 48.734375 21.84375 45.5625 
Q 25.390625 42.390625 31.78125 42.390625 
Q 38.140625 42.390625 41.71875 45.5625 
Q 45.3125 48.734375 45.3125 54.390625 
Q 45.3125 60.0625 41.71875 63.234375 
Q 38.140625 66.40625 31.78125 66.40625 
Q 25.390625 66.40625 21.84375 63.234375 
Q 18.3125 60.0625 18.3125 54.390625 
z
" id="DejaVuSans-56"/>
      </defs>
      <g style="fill:#555555;" transform="translate(363.663617 256.180187)scale(0.1 -0.1)">
       <use xlink:href="#DejaVuSans-56"/>
       <use x="63.623047" xlink:href="#DejaVuSans-48"/>
      </g>
     </g>
    </g>
    <g id="text_10">
     <!-- Cluester Size -->
     <defs>
      <path d="M 64.40625 67.28125 
L 64.40625 56.890625 
Q 59.421875 61.53125 53.78125 63.8125 
Q 48.140625 66.109375 41.796875 66.109375 
Q 29.296875 66.109375 22.65625 58.46875 
Q 16.015625 50.828125 16.015625 36.375 
Q 16.015625 21.96875 22.65625 14.328125 
Q 29.296875 6.6875 41.796875 6.6875 
Q 48.140625 6.6875 53.78125 8.984375 
Q 59.421875 11.28125 64.40625 15.921875 
L 64.40625 5.609375 
Q 59.234375 2.09375 53.4375 0.328125 
Q 47.65625 -1.421875 41.21875 -1.421875 
Q 24.65625 -1.421875 15.125 8.703125 
Q 5.609375 18.84375 5.609375 36.375 
Q 5.609375 53.953125 15.125 64.078125 
Q 24.65625 74.21875 41.21875 74.21875 
Q 47.75 74.21875 53.53125 72.484375 
Q 59.328125 70.75 64.40625 67.28125 
z
" id="DejaVuSans-67"/>
      <path d="M 9.421875 75.984375 
L 18.40625 75.984375 
L 18.40625 0 
L 9.421875 0 
z
" id="DejaVuSans-108"/>
      <path d="M 8.5 21.578125 
L 8.5 54.6875 
L 17.484375 54.6875 
L 17.484375 21.921875 
Q 17.484375 14.15625 20.5 10.265625 
Q 23.53125 6.390625 29.59375 6.390625 
Q 36.859375 6.390625 41.078125 11.03125 
Q 45.3125 15.671875 45.3125 23.6875 
L 45.3125 54.6875 
L 54.296875 54.6875 
L 54.296875 0 
L 45.3125 0 
L 45.3125 8.40625 
Q 42.046875 3.421875 37.71875 1 
Q 33.40625 -1.421875 27.6875 -1.421875 
Q 18.265625 -1.421875 13.375 4.4375 
Q 8.5 10.296875 8.5 21.578125 
z
M 31.109375 56 
z
" id="DejaVuSans-117"/>
      <path d="M 56.203125 29.59375 
L 56.203125 25.203125 
L 14.890625 25.203125 
Q 15.484375 15.921875 20.484375 11.0625 
Q 25.484375 6.203125 34.421875 6.203125 
Q 39.59375 6.203125 44.453125 7.46875 
Q 49.3125 8.734375 54.109375 11.28125 
L 54.109375 2.78125 
Q 49.265625 0.734375 44.1875 -0.34375 
Q 39.109375 -1.421875 33.890625 -1.421875 
Q 20.796875 -1.421875 13.15625 6.1875 
Q 5.515625 13.8125 5.515625 26.8125 
Q 5.515625 40.234375 12.765625 48.109375 
Q 20.015625 56 32.328125 56 
Q 43.359375 56 49.78125 48.890625 
Q 56.203125 41.796875 56.203125 29.59375 
z
M 47.21875 32.234375 
Q 47.125 39.59375 43.09375 43.984375 
Q 39.0625 48.390625 32.421875 48.390625 
Q 24.90625 48.390625 20.390625 44.140625 
Q 15.875 39.890625 15.1875 32.171875 
z
" id="DejaVuSans-101"/>
      <path d="M 44.28125 53.078125 
L 44.28125 44.578125 
Q 40.484375 46.53125 36.375 47.5 
Q 32.28125 48.484375 27.875 48.484375 
Q 21.1875 48.484375 17.84375 46.4375 
Q 14.5 44.390625 14.5 40.28125 
Q 14.5 37.15625 16.890625 35.375 
Q 19.28125 33.59375 26.515625 31.984375 
L 29.59375 31.296875 
Q 39.15625 29.25 43.1875 25.515625 
Q 47.21875 21.78125 47.21875 15.09375 
Q 47.21875 7.46875 41.1875 3.015625 
Q 35.15625 -1.421875 24.609375 -1.421875 
Q 20.21875 -1.421875 15.453125 -0.5625 
Q 10.6875 0.296875 5.421875 2 
L 5.421875 11.28125 
Q 10.40625 8.6875 15.234375 7.390625 
Q 20.0625 6.109375 24.8125 6.109375 
Q 31.15625 6.109375 34.5625 8.28125 
Q 37.984375 10.453125 37.984375 14.40625 
Q 37.984375 18.0625 35.515625 20.015625 
Q 33.0625 21.96875 24.703125 23.78125 
L 21.578125 24.515625 
Q 13.234375 26.265625 9.515625 29.90625 
Q 5.8125 33.546875 5.8125 39.890625 
Q 5.8125 47.609375 11.28125 51.796875 
Q 16.75 56 26.8125 56 
Q 31.78125 56 36.171875 55.265625 
Q 40.578125 54.546875 44.28125 53.078125 
z
" id="DejaVuSans-115"/>
      <path d="M 18.3125 70.21875 
L 18.3125 54.6875 
L 36.8125 54.6875 
L 36.8125 47.703125 
L 18.3125 47.703125 
L 18.3125 18.015625 
Q 18.3125 11.328125 20.140625 9.421875 
Q 21.96875 7.515625 27.59375 7.515625 
L 36.8125 7.515625 
L 36.8125 0 
L 27.59375 0 
Q 17.1875 0 13.234375 3.875 
Q 9.28125 7.765625 9.28125 18.015625 
L 9.28125 47.703125 
L 2.6875 47.703125 
L 2.6875 54.6875 
L 9.28125 54.6875 
L 9.28125 70.21875 
z
" id="DejaVuSans-116"/>
      <path d="M 41.109375 46.296875 
Q 39.59375 47.171875 37.8125 47.578125 
Q 36.03125 48 33.890625 48 
Q 26.265625 48 22.1875 43.046875 
Q 18.109375 38.09375 18.109375 28.8125 
L 18.109375 0 
L 9.078125 0 
L 9.078125 54.6875 
L 18.109375 54.6875 
L 18.109375 46.1875 
Q 20.953125 51.171875 25.484375 53.578125 
Q 30.03125 56 36.53125 56 
Q 37.453125 56 38.578125 55.875 
Q 39.703125 55.765625 41.0625 55.515625 
z
" id="DejaVuSans-114"/>
      <path id="DejaVuSans-32"/>
      <path d="M 53.515625 70.515625 
L 53.515625 60.890625 
Q 47.90625 63.578125 42.921875 64.890625 
Q 37.9375 66.21875 33.296875 66.21875 
Q 25.25 66.21875 20.875 63.09375 
Q 16.5 59.96875 16.5 54.203125 
Q 16.5 49.359375 19.40625 46.890625 
Q 22.3125 44.4375 30.421875 42.921875 
L 36.375 41.703125 
Q 47.40625 39.59375 52.65625 34.296875 
Q 57.90625 29 57.90625 20.125 
Q 57.90625 9.515625 50.796875 4.046875 
Q 43.703125 -1.421875 29.984375 -1.421875 
Q 24.8125 -1.421875 18.96875 -0.25 
Q 13.140625 0.921875 6.890625 3.21875 
L 6.890625 13.375 
Q 12.890625 10.015625 18.65625 8.296875 
Q 24.421875 6.59375 29.984375 6.59375 
Q 38.421875 6.59375 43.015625 9.90625 
Q 47.609375 13.234375 47.609375 19.390625 
Q 47.609375 24.75 44.3125 27.78125 
Q 41.015625 30.8125 33.5 32.328125 
L 27.484375 33.5 
Q 16.453125 35.6875 11.515625 40.375 
Q 6.59375 45.0625 6.59375 53.421875 
Q 6.59375 63.09375 13.40625 68.65625 
Q 20.21875 74.21875 32.171875 74.21875 
Q 37.3125 74.21875 42.625 73.28125 
Q 47.953125 72.359375 53.515625 70.515625 
z
" id="DejaVuSans-83"/>
      <path d="M 9.421875 54.6875 
L 18.40625 54.6875 
L 18.40625 0 
L 9.421875 0 
z
M 9.421875 75.984375 
L 18.40625 75.984375 
L 18.40625 64.59375 
L 9.421875 64.59375 
z
" id="DejaVuSans-105"/>
      <path d="M 5.515625 54.6875 
L 48.1875 54.6875 
L 48.1875 46.484375 
L 14.40625 7.171875 
L 48.1875 7.171875 
L 48.1875 0 
L 4.296875 0 
L 4.296875 8.203125 
L 38.09375 47.515625 
L 5.515625 47.515625 
z
" id="DejaVuSans-122"/>
     </defs>
     <g style="fill:#555555;" transform="translate(170.727813 271.378)scale(0.12 -0.12)">
      <use xlink:href="#DejaVuSans-67"/>
      <use x="69.824219" xlink:href="#DejaVuSans-108"/>
      <use x="97.607422" xlink:href="#DejaVuSans-117"/>
      <use x="160.986328" xlink:href="#DejaVuSans-101"/>
      <use x="222.509766" xlink:href="#DejaVuSans-115"/>
      <use x="274.609375" xlink:href="#DejaVuSans-116"/>
      <use x="313.818359" xlink:href="#DejaVuSans-101"/>
      <use x="375.341797" xlink:href="#DejaVuSans-114"/>
      <use x="416.455078" xlink:href="#DejaVuSans-32"/>
      <use x="448.242188" xlink:href="#DejaVuSans-83"/>
      <use x="511.71875" xlink:href="#DejaVuSans-105"/>
      <use x="539.501953" xlink:href="#DejaVuSans-122"/>
      <use x="591.992188" xlink:href="#DejaVuSans-101"/>
     </g>
    </g>
   </g>
   <g id="matplotlib.axis_2">
    <g id="ytick_1">
     <g id="line2d_19">
      <path clip-path="url(#pd1ccaf2e8a)" d="M 42.53875 241.58175 
L 377.33875 241.58175 
" style="fill:none;stroke:#ffffff;stroke-linecap:square;stroke-width:0.8;"/>
     </g>
     <g id="line2d_20">
      <defs>
       <path d="M 0 0 
L -3.5 0 
" id="m578cf54204" style="stroke:#555555;stroke-width:0.8;"/>
      </defs>
      <g>
       <use style="fill:#555555;stroke:#555555;stroke-width:0.8;" x="42.53875" xlink:href="#m578cf54204" y="241.58175"/>
      </g>
     </g>
     <g id="text_11">
      <!-- 0 -->
      <g style="fill:#555555;" transform="translate(29.17625 245.380969)scale(0.1 -0.1)">
       <use xlink:href="#DejaVuSans-48"/>
      </g>
     </g>
    </g>
    <g id="ytick_2">
     <g id="line2d_21">
      <path clip-path="url(#pd1ccaf2e8a)" d="M 42.53875 207.067464 
L 377.33875 207.067464 
" style="fill:none;stroke:#ffffff;stroke-linecap:square;stroke-width:0.8;"/>
     </g>
     <g id="line2d_22">
      <g>
       <use style="fill:#555555;stroke:#555555;stroke-width:0.8;" x="42.53875" xlink:href="#m578cf54204" y="207.067464"/>
      </g>
     </g>
     <g id="text_12">
      <!-- 2 -->
      <g style="fill:#555555;" transform="translate(29.17625 210.866683)scale(0.1 -0.1)">
       <use xlink:href="#DejaVuSans-50"/>
      </g>
     </g>
    </g>
    <g id="ytick_3">
     <g id="line2d_23">
      <path clip-path="url(#pd1ccaf2e8a)" d="M 42.53875 172.553179 
L 377.33875 172.553179 
" style="fill:none;stroke:#ffffff;stroke-linecap:square;stroke-width:0.8;"/>
     </g>
     <g id="line2d_24">
      <g>
       <use style="fill:#555555;stroke:#555555;stroke-width:0.8;" x="42.53875" xlink:href="#m578cf54204" y="172.553179"/>
      </g>
     </g>
     <g id="text_13">
      <!-- 4 -->
      <g style="fill:#555555;" transform="translate(29.17625 176.352397)scale(0.1 -0.1)">
       <use xlink:href="#DejaVuSans-52"/>
      </g>
     </g>
    </g>
    <g id="ytick_4">
     <g id="line2d_25">
      <path clip-path="url(#pd1ccaf2e8a)" d="M 42.53875 138.038893 
L 377.33875 138.038893 
" style="fill:none;stroke:#ffffff;stroke-linecap:square;stroke-width:0.8;"/>
     </g>
     <g id="line2d_26">
      <g>
       <use style="fill:#555555;stroke:#555555;stroke-width:0.8;" x="42.53875" xlink:href="#m578cf54204" y="138.038893"/>
      </g>
     </g>
     <g id="text_14">
      <!-- 6 -->
      <g style="fill:#555555;" transform="translate(29.17625 141.838112)scale(0.1 -0.1)">
       <use xlink:href="#DejaVuSans-54"/>
      </g>
     </g>
    </g>
    <g id="ytick_5">
     <g id="line2d_27">
      <path clip-path="url(#pd1ccaf2e8a)" d="M 42.53875 103.524607 
L 377.33875 103.524607 
" style="fill:none;stroke:#ffffff;stroke-linecap:square;stroke-width:0.8;"/>
     </g>
     <g id="line2d_28">
      <g>
       <use style="fill:#555555;stroke:#555555;stroke-width:0.8;" x="42.53875" xlink:href="#m578cf54204" y="103.524607"/>
      </g>
     </g>
     <g id="text_15">
      <!-- 8 -->
      <g style="fill:#555555;" transform="translate(29.17625 107.323826)scale(0.1 -0.1)">
       <use xlink:href="#DejaVuSans-56"/>
      </g>
     </g>
    </g>
    <g id="ytick_6">
     <g id="line2d_29">
      <path clip-path="url(#pd1ccaf2e8a)" d="M 42.53875 69.010321 
L 377.33875 69.010321 
" style="fill:none;stroke:#ffffff;stroke-linecap:square;stroke-width:0.8;"/>
     </g>
     <g id="line2d_30">
      <g>
       <use style="fill:#555555;stroke:#555555;stroke-width:0.8;" x="42.53875" xlink:href="#m578cf54204" y="69.010321"/>
      </g>
     </g>
     <g id="text_16">
      <!-- 10 -->
      <g style="fill:#555555;" transform="translate(22.81375 72.80954)scale(0.1 -0.1)">
       <use xlink:href="#DejaVuSans-49"/>
       <use x="63.623047" xlink:href="#DejaVuSans-48"/>
      </g>
     </g>
    </g>
    <g id="ytick_7">
     <g id="line2d_31">
      <path clip-path="url(#pd1ccaf2e8a)" d="M 42.53875 34.496036 
L 377.33875 34.496036 
" style="fill:none;stroke:#ffffff;stroke-linecap:square;stroke-width:0.8;"/>
     </g>
     <g id="line2d_32">
      <g>
       <use style="fill:#555555;stroke:#555555;stroke-width:0.8;" x="42.53875" xlink:href="#m578cf54204" y="34.496036"/>
      </g>
     </g>
     <g id="text_17">
      <!-- 12 -->
      <g style="fill:#555555;" transform="translate(22.81375 38.295254)scale(0.1 -0.1)">
       <use xlink:href="#DejaVuSans-49"/>
       <use x="63.623047" xlink:href="#DejaVuSans-50"/>
      </g>
     </g>
    </g>
    <g id="text_18">
     <!-- Frequency -->
     <defs>
      <path d="M 9.8125 72.90625 
L 51.703125 72.90625 
L 51.703125 64.59375 
L 19.671875 64.59375 
L 19.671875 43.109375 
L 48.578125 43.109375 
L 48.578125 34.8125 
L 19.671875 34.8125 
L 19.671875 0 
L 9.8125 0 
z
" id="DejaVuSans-70"/>
      <path d="M 14.796875 27.296875 
Q 14.796875 17.390625 18.875 11.75 
Q 22.953125 6.109375 30.078125 6.109375 
Q 37.203125 6.109375 41.296875 11.75 
Q 45.40625 17.390625 45.40625 27.296875 
Q 45.40625 37.203125 41.296875 42.84375 
Q 37.203125 48.484375 30.078125 48.484375 
Q 22.953125 48.484375 18.875 42.84375 
Q 14.796875 37.203125 14.796875 27.296875 
z
M 45.40625 8.203125 
Q 42.578125 3.328125 38.25 0.953125 
Q 33.9375 -1.421875 27.875 -1.421875 
Q 17.96875 -1.421875 11.734375 6.484375 
Q 5.515625 14.40625 5.515625 27.296875 
Q 5.515625 40.1875 11.734375 48.09375 
Q 17.96875 56 27.875 56 
Q 33.9375 56 38.25 53.625 
Q 42.578125 51.265625 45.40625 46.390625 
L 45.40625 54.6875 
L 54.390625 54.6875 
L 54.390625 -20.796875 
L 45.40625 -20.796875 
z
" id="DejaVuSans-113"/>
      <path d="M 54.890625 33.015625 
L 54.890625 0 
L 45.90625 0 
L 45.90625 32.71875 
Q 45.90625 40.484375 42.875 44.328125 
Q 39.84375 48.1875 33.796875 48.1875 
Q 26.515625 48.1875 22.3125 43.546875 
Q 18.109375 38.921875 18.109375 30.90625 
L 18.109375 0 
L 9.078125 0 
L 9.078125 54.6875 
L 18.109375 54.6875 
L 18.109375 46.1875 
Q 21.34375 51.125 25.703125 53.5625 
Q 30.078125 56 35.796875 56 
Q 45.21875 56 50.046875 50.171875 
Q 54.890625 44.34375 54.890625 33.015625 
z
" id="DejaVuSans-110"/>
      <path d="M 48.78125 52.59375 
L 48.78125 44.1875 
Q 44.96875 46.296875 41.140625 47.34375 
Q 37.3125 48.390625 33.40625 48.390625 
Q 24.65625 48.390625 19.8125 42.84375 
Q 14.984375 37.3125 14.984375 27.296875 
Q 14.984375 17.28125 19.8125 11.734375 
Q 24.65625 6.203125 33.40625 6.203125 
Q 37.3125 6.203125 41.140625 7.25 
Q 44.96875 8.296875 48.78125 10.40625 
L 48.78125 2.09375 
Q 45.015625 0.34375 40.984375 -0.53125 
Q 36.96875 -1.421875 32.421875 -1.421875 
Q 20.0625 -1.421875 12.78125 6.34375 
Q 5.515625 14.109375 5.515625 27.296875 
Q 5.515625 40.671875 12.859375 48.328125 
Q 20.21875 56 33.015625 56 
Q 37.15625 56 41.109375 55.140625 
Q 45.0625 54.296875 48.78125 52.59375 
z
" id="DejaVuSans-99"/>
      <path d="M 32.171875 -5.078125 
Q 28.375 -14.84375 24.75 -17.8125 
Q 21.140625 -20.796875 15.09375 -20.796875 
L 7.90625 -20.796875 
L 7.90625 -13.28125 
L 13.1875 -13.28125 
Q 16.890625 -13.28125 18.9375 -11.515625 
Q 21 -9.765625 23.484375 -3.21875 
L 25.09375 0.875 
L 2.984375 54.6875 
L 12.5 54.6875 
L 29.59375 11.921875 
L 46.6875 54.6875 
L 56.203125 54.6875 
z
" id="DejaVuSans-121"/>
     </defs>
     <g style="fill:#555555;" transform="translate(16.318125 164.418937)rotate(-90)scale(0.12 -0.12)">
      <use xlink:href="#DejaVuSans-70"/>
      <use x="57.410156" xlink:href="#DejaVuSans-114"/>
      <use x="98.492188" xlink:href="#DejaVuSans-101"/>
      <use x="160.015625" xlink:href="#DejaVuSans-113"/>
      <use x="223.492188" xlink:href="#DejaVuSans-117"/>
      <use x="286.871094" xlink:href="#DejaVuSans-101"/>
      <use x="348.394531" xlink:href="#DejaVuSans-110"/>
      <use x="411.773438" xlink:href="#DejaVuSans-99"/>
      <use x="466.753906" xlink:href="#DejaVuSans-121"/>
     </g>
    </g>
   </g>
   <g id="patch_3">
    <path clip-path="url(#pd1ccaf2e8a)" d="M 73.56803 241.58175 
L 77.690209 241.58175 
L 77.690209 138.038893 
L 73.56803 138.038893 
z
" style="fill:#e24a33;opacity:0.4;"/>
   </g>
   <g id="patch_4">
    <path clip-path="url(#pd1ccaf2e8a)" d="M 77.690209 241.58175 
L 81.812388 241.58175 
L 81.812388 120.78175 
L 77.690209 120.78175 
z
" style="fill:#e24a33;opacity:0.4;"/>
   </g>
   <g id="patch_5">
    <path clip-path="url(#pd1ccaf2e8a)" d="M 81.812388 241.58175 
L 85.934567 241.58175 
L 85.934567 86.267464 
L 81.812388 86.267464 
z
" style="fill:#e24a33;opacity:0.4;"/>
   </g>
   <g id="patch_6">
    <path clip-path="url(#pd1ccaf2e8a)" d="M 85.934567 241.58175 
L 90.056746 241.58175 
L 90.056746 34.496036 
L 85.934567 34.496036 
z
" style="fill:#e24a33;opacity:0.4;"/>
   </g>
   <g id="patch_7">
    <path clip-path="url(#pd1ccaf2e8a)" d="M 90.056746 241.58175 
L 94.178925 241.58175 
L 94.178925 189.810321 
L 90.056746 189.810321 
z
" style="fill:#e24a33;opacity:0.4;"/>
   </g>
   <g id="patch_8">
    <path clip-path="url(#pd1ccaf2e8a)" d="M 94.178925 241.58175 
L 98.301105 241.58175 
L 98.301105 172.553179 
L 94.178925 172.553179 
z
" style="fill:#e24a33;opacity:0.4;"/>
   </g>
   <g id="patch_9">
    <path clip-path="url(#pd1ccaf2e8a)" d="M 98.301105 241.58175 
L 102.423284 241.58175 
L 102.423284 120.78175 
L 98.301105 120.78175 
z
" style="fill:#e24a33;opacity:0.4;"/>
   </g>
   <g id="patch_10">
    <path clip-path="url(#pd1ccaf2e8a)" d="M 102.423284 241.58175 
L 106.545463 241.58175 
L 106.545463 172.553179 
L 102.423284 172.553179 
z
" style="fill:#e24a33;opacity:0.4;"/>
   </g>
   <g id="patch_11">
    <path clip-path="url(#pd1ccaf2e8a)" d="M 106.545463 241.58175 
L 110.667642 241.58175 
L 110.667642 224.324607 
L 106.545463 224.324607 
z
" style="fill:#e24a33;opacity:0.4;"/>
   </g>
   <g id="patch_12">
    <path clip-path="url(#pd1ccaf2e8a)" d="M 110.667642 241.58175 
L 114.789821 241.58175 
L 114.789821 224.324607 
L 110.667642 224.324607 
z
" style="fill:#e24a33;opacity:0.4;"/>
   </g>
   <g id="patch_13">
    <path clip-path="url(#pd1ccaf2e8a)" d="M 114.789821 241.58175 
L 118.912 241.58175 
L 118.912 224.324607 
L 114.789821 224.324607 
z
" style="fill:#e24a33;opacity:0.4;"/>
   </g>
   <g id="patch_14">
    <path clip-path="url(#pd1ccaf2e8a)" d="M 118.912 241.58175 
L 123.034179 241.58175 
L 123.034179 207.067464 
L 118.912 207.067464 
z
" style="fill:#e24a33;opacity:0.4;"/>
   </g>
   <g id="patch_15">
    <path clip-path="url(#pd1ccaf2e8a)" d="M 123.034179 241.58175 
L 127.156358 241.58175 
L 127.156358 241.58175 
L 123.034179 241.58175 
z
" style="fill:#e24a33;opacity:0.4;"/>
   </g>
   <g id="patch_16">
    <path clip-path="url(#pd1ccaf2e8a)" d="M 127.156358 241.58175 
L 131.278537 241.58175 
L 131.278537 224.324607 
L 127.156358 224.324607 
z
" style="fill:#e24a33;opacity:0.4;"/>
   </g>
   <g id="patch_17">
    <path clip-path="url(#pd1ccaf2e8a)" d="M 131.278537 241.58175 
L 135.400717 241.58175 
L 135.400717 189.810321 
L 131.278537 189.810321 
z
" style="fill:#e24a33;opacity:0.4;"/>
   </g>
   <g id="patch_18">
    <path clip-path="url(#pd1ccaf2e8a)" d="M 135.400717 241.58175 
L 139.522896 241.58175 
L 139.522896 241.58175 
L 135.400717 241.58175 
z
" style="fill:#e24a33;opacity:0.4;"/>
   </g>
   <g id="patch_19">
    <path clip-path="url(#pd1ccaf2e8a)" d="M 139.522896 241.58175 
L 143.645075 241.58175 
L 143.645075 224.324607 
L 139.522896 224.324607 
z
" style="fill:#e24a33;opacity:0.4;"/>
   </g>
   <g id="patch_20">
    <path clip-path="url(#pd1ccaf2e8a)" d="M 143.645075 241.58175 
L 147.767254 241.58175 
L 147.767254 241.58175 
L 143.645075 241.58175 
z
" style="fill:#e24a33;opacity:0.4;"/>
   </g>
   <g id="patch_21">
    <path clip-path="url(#pd1ccaf2e8a)" d="M 147.767254 241.58175 
L 151.889433 241.58175 
L 151.889433 241.58175 
L 147.767254 241.58175 
z
" style="fill:#e24a33;opacity:0.4;"/>
   </g>
   <g id="patch_22">
    <path clip-path="url(#pd1ccaf2e8a)" d="M 151.889433 241.58175 
L 156.011612 241.58175 
L 156.011612 241.58175 
L 151.889433 241.58175 
z
" style="fill:#e24a33;opacity:0.4;"/>
   </g>
   <g id="patch_23">
    <path clip-path="url(#pd1ccaf2e8a)" d="M 156.011612 241.58175 
L 160.133791 241.58175 
L 160.133791 224.324607 
L 156.011612 224.324607 
z
" style="fill:#e24a33;opacity:0.4;"/>
   </g>
   <g id="patch_24">
    <path clip-path="url(#pd1ccaf2e8a)" d="M 160.133791 241.58175 
L 164.25597 241.58175 
L 164.25597 241.58175 
L 160.133791 241.58175 
z
" style="fill:#e24a33;opacity:0.4;"/>
   </g>
   <g id="patch_25">
    <path clip-path="url(#pd1ccaf2e8a)" d="M 164.25597 241.58175 
L 168.37815 241.58175 
L 168.37815 241.58175 
L 164.25597 241.58175 
z
" style="fill:#e24a33;opacity:0.4;"/>
   </g>
   <g id="patch_26">
    <path clip-path="url(#pd1ccaf2e8a)" d="M 168.37815 241.58175 
L 172.500329 241.58175 
L 172.500329 224.324607 
L 168.37815 224.324607 
z
" style="fill:#e24a33;opacity:0.4;"/>
   </g>
   <g id="patch_27">
    <path clip-path="url(#pd1ccaf2e8a)" d="M 172.500329 241.58175 
L 176.622508 241.58175 
L 176.622508 241.58175 
L 172.500329 241.58175 
z
" style="fill:#e24a33;opacity:0.4;"/>
   </g>
   <g id="patch_28">
    <path clip-path="url(#pd1ccaf2e8a)" d="M 176.622508 241.58175 
L 180.744687 241.58175 
L 180.744687 241.58175 
L 176.622508 241.58175 
z
" style="fill:#e24a33;opacity:0.4;"/>
   </g>
   <g id="patch_29">
    <path clip-path="url(#pd1ccaf2e8a)" d="M 180.744687 241.58175 
L 184.866866 241.58175 
L 184.866866 241.58175 
L 180.744687 241.58175 
z
" style="fill:#e24a33;opacity:0.4;"/>
   </g>
   <g id="patch_30">
    <path clip-path="url(#pd1ccaf2e8a)" d="M 184.866866 241.58175 
L 188.989045 241.58175 
L 188.989045 241.58175 
L 184.866866 241.58175 
z
" style="fill:#e24a33;opacity:0.4;"/>
   </g>
   <g id="patch_31">
    <path clip-path="url(#pd1ccaf2e8a)" d="M 188.989045 241.58175 
L 193.111224 241.58175 
L 193.111224 241.58175 
L 188.989045 241.58175 
z
" style="fill:#e24a33;opacity:0.4;"/>
   </g>
   <g id="patch_32">
    <path clip-path="url(#pd1ccaf2e8a)" d="M 193.111224 241.58175 
L 197.233403 241.58175 
L 197.233403 224.324607 
L 193.111224 224.324607 
z
" style="fill:#e24a33;opacity:0.4;"/>
   </g>
   <g id="patch_33">
    <path clip-path="url(#pd1ccaf2e8a)" d="M 197.233403 241.58175 
L 201.355583 241.58175 
L 201.355583 241.58175 
L 197.233403 241.58175 
z
" style="fill:#e24a33;opacity:0.4;"/>
   </g>
   <g id="patch_34">
    <path clip-path="url(#pd1ccaf2e8a)" d="M 201.355583 241.58175 
L 205.477762 241.58175 
L 205.477762 241.58175 
L 201.355583 241.58175 
z
" style="fill:#e24a33;opacity:0.4;"/>
   </g>
   <g id="patch_35">
    <path clip-path="url(#pd1ccaf2e8a)" d="M 205.477762 241.58175 
L 209.599941 241.58175 
L 209.599941 241.58175 
L 205.477762 241.58175 
z
" style="fill:#e24a33;opacity:0.4;"/>
   </g>
   <g id="patch_36">
    <path clip-path="url(#pd1ccaf2e8a)" d="M 209.599941 241.58175 
L 213.72212 241.58175 
L 213.72212 241.58175 
L 209.599941 241.58175 
z
" style="fill:#e24a33;opacity:0.4;"/>
   </g>
   <g id="patch_37">
    <path clip-path="url(#pd1ccaf2e8a)" d="M 213.72212 241.58175 
L 217.844299 241.58175 
L 217.844299 241.58175 
L 213.72212 241.58175 
z
" style="fill:#e24a33;opacity:0.4;"/>
   </g>
   <g id="patch_38">
    <path clip-path="url(#pd1ccaf2e8a)" d="M 217.844299 241.58175 
L 221.966478 241.58175 
L 221.966478 241.58175 
L 217.844299 241.58175 
z
" style="fill:#e24a33;opacity:0.4;"/>
   </g>
   <g id="patch_39">
    <path clip-path="url(#pd1ccaf2e8a)" d="M 221.966478 241.58175 
L 226.088657 241.58175 
L 226.088657 241.58175 
L 221.966478 241.58175 
z
" style="fill:#e24a33;opacity:0.4;"/>
   </g>
   <g id="patch_40">
    <path clip-path="url(#pd1ccaf2e8a)" d="M 226.088657 241.58175 
L 230.210836 241.58175 
L 230.210836 241.58175 
L 226.088657 241.58175 
z
" style="fill:#e24a33;opacity:0.4;"/>
   </g>
   <g id="patch_41">
    <path clip-path="url(#pd1ccaf2e8a)" d="M 230.210836 241.58175 
L 234.333015 241.58175 
L 234.333015 241.58175 
L 230.210836 241.58175 
z
" style="fill:#e24a33;opacity:0.4;"/>
   </g>
   <g id="patch_42">
    <path clip-path="url(#pd1ccaf2e8a)" d="M 234.333015 241.58175 
L 238.455195 241.58175 
L 238.455195 241.58175 
L 234.333015 241.58175 
z
" style="fill:#e24a33;opacity:0.4;"/>
   </g>
   <g id="patch_43">
    <path clip-path="url(#pd1ccaf2e8a)" d="M 238.455195 241.58175 
L 242.577374 241.58175 
L 242.577374 241.58175 
L 238.455195 241.58175 
z
" style="fill:#e24a33;opacity:0.4;"/>
   </g>
   <g id="patch_44">
    <path clip-path="url(#pd1ccaf2e8a)" d="M 242.577374 241.58175 
L 246.699553 241.58175 
L 246.699553 241.58175 
L 242.577374 241.58175 
z
" style="fill:#e24a33;opacity:0.4;"/>
   </g>
   <g id="patch_45">
    <path clip-path="url(#pd1ccaf2e8a)" d="M 246.699553 241.58175 
L 250.821732 241.58175 
L 250.821732 241.58175 
L 246.699553 241.58175 
z
" style="fill:#e24a33;opacity:0.4;"/>
   </g>
   <g id="patch_46">
    <path clip-path="url(#pd1ccaf2e8a)" d="M 250.821732 241.58175 
L 254.943911 241.58175 
L 254.943911 241.58175 
L 250.821732 241.58175 
z
" style="fill:#e24a33;opacity:0.4;"/>
   </g>
   <g id="patch_47">
    <path clip-path="url(#pd1ccaf2e8a)" d="M 254.943911 241.58175 
L 259.06609 241.58175 
L 259.06609 241.58175 
L 254.943911 241.58175 
z
" style="fill:#e24a33;opacity:0.4;"/>
   </g>
   <g id="patch_48">
    <path clip-path="url(#pd1ccaf2e8a)" d="M 259.06609 241.58175 
L 263.188269 241.58175 
L 263.188269 241.58175 
L 259.06609 241.58175 
z
" style="fill:#e24a33;opacity:0.4;"/>
   </g>
   <g id="patch_49">
    <path clip-path="url(#pd1ccaf2e8a)" d="M 263.188269 241.58175 
L 267.310448 241.58175 
L 267.310448 241.58175 
L 263.188269 241.58175 
z
" style="fill:#e24a33;opacity:0.4;"/>
   </g>
   <g id="patch_50">
    <path clip-path="url(#pd1ccaf2e8a)" d="M 267.310448 241.58175 
L 271.432628 241.58175 
L 271.432628 241.58175 
L 267.310448 241.58175 
z
" style="fill:#e24a33;opacity:0.4;"/>
   </g>
   <g id="patch_51">
    <path clip-path="url(#pd1ccaf2e8a)" d="M 271.432628 241.58175 
L 275.554807 241.58175 
L 275.554807 241.58175 
L 271.432628 241.58175 
z
" style="fill:#e24a33;opacity:0.4;"/>
   </g>
   <g id="patch_52">
    <path clip-path="url(#pd1ccaf2e8a)" d="M 275.554807 241.58175 
L 279.676986 241.58175 
L 279.676986 241.58175 
L 275.554807 241.58175 
z
" style="fill:#e24a33;opacity:0.4;"/>
   </g>
   <g id="patch_53">
    <path clip-path="url(#pd1ccaf2e8a)" d="M 279.676986 241.58175 
L 283.799165 241.58175 
L 283.799165 241.58175 
L 279.676986 241.58175 
z
" style="fill:#e24a33;opacity:0.4;"/>
   </g>
   <g id="patch_54">
    <path clip-path="url(#pd1ccaf2e8a)" d="M 283.799165 241.58175 
L 287.921344 241.58175 
L 287.921344 241.58175 
L 283.799165 241.58175 
z
" style="fill:#e24a33;opacity:0.4;"/>
   </g>
   <g id="patch_55">
    <path clip-path="url(#pd1ccaf2e8a)" d="M 287.921344 241.58175 
L 292.043523 241.58175 
L 292.043523 241.58175 
L 287.921344 241.58175 
z
" style="fill:#e24a33;opacity:0.4;"/>
   </g>
   <g id="patch_56">
    <path clip-path="url(#pd1ccaf2e8a)" d="M 292.043523 241.58175 
L 296.165702 241.58175 
L 296.165702 241.58175 
L 292.043523 241.58175 
z
" style="fill:#e24a33;opacity:0.4;"/>
   </g>
   <g id="patch_57">
    <path clip-path="url(#pd1ccaf2e8a)" d="M 296.165702 241.58175 
L 300.287881 241.58175 
L 300.287881 241.58175 
L 296.165702 241.58175 
z
" style="fill:#e24a33;opacity:0.4;"/>
   </g>
   <g id="patch_58">
    <path clip-path="url(#pd1ccaf2e8a)" d="M 300.287881 241.58175 
L 304.410061 241.58175 
L 304.410061 241.58175 
L 300.287881 241.58175 
z
" style="fill:#e24a33;opacity:0.4;"/>
   </g>
   <g id="patch_59">
    <path clip-path="url(#pd1ccaf2e8a)" d="M 304.410061 241.58175 
L 308.53224 241.58175 
L 308.53224 241.58175 
L 304.410061 241.58175 
z
" style="fill:#e24a33;opacity:0.4;"/>
   </g>
   <g id="patch_60">
    <path clip-path="url(#pd1ccaf2e8a)" d="M 308.53224 241.58175 
L 312.654419 241.58175 
L 312.654419 241.58175 
L 308.53224 241.58175 
z
" style="fill:#e24a33;opacity:0.4;"/>
   </g>
   <g id="patch_61">
    <path clip-path="url(#pd1ccaf2e8a)" d="M 312.654419 241.58175 
L 316.776598 241.58175 
L 316.776598 241.58175 
L 312.654419 241.58175 
z
" style="fill:#e24a33;opacity:0.4;"/>
   </g>
   <g id="patch_62">
    <path clip-path="url(#pd1ccaf2e8a)" d="M 316.776598 241.58175 
L 320.898777 241.58175 
L 320.898777 241.58175 
L 316.776598 241.58175 
z
" style="fill:#e24a33;opacity:0.4;"/>
   </g>
   <g id="patch_63">
    <path clip-path="url(#pd1ccaf2e8a)" d="M 320.898777 241.58175 
L 325.020956 241.58175 
L 325.020956 241.58175 
L 320.898777 241.58175 
z
" style="fill:#e24a33;opacity:0.4;"/>
   </g>
   <g id="patch_64">
    <path clip-path="url(#pd1ccaf2e8a)" d="M 325.020956 241.58175 
L 329.143135 241.58175 
L 329.143135 241.58175 
L 325.020956 241.58175 
z
" style="fill:#e24a33;opacity:0.4;"/>
   </g>
   <g id="patch_65">
    <path clip-path="url(#pd1ccaf2e8a)" d="M 329.143135 241.58175 
L 333.265314 241.58175 
L 333.265314 241.58175 
L 329.143135 241.58175 
z
" style="fill:#e24a33;opacity:0.4;"/>
   </g>
   <g id="patch_66">
    <path clip-path="url(#pd1ccaf2e8a)" d="M 333.265314 241.58175 
L 337.387493 241.58175 
L 337.387493 241.58175 
L 333.265314 241.58175 
z
" style="fill:#e24a33;opacity:0.4;"/>
   </g>
   <g id="patch_67">
    <path clip-path="url(#pd1ccaf2e8a)" d="M 337.387493 241.58175 
L 341.509673 241.58175 
L 341.509673 241.58175 
L 337.387493 241.58175 
z
" style="fill:#e24a33;opacity:0.4;"/>
   </g>
   <g id="patch_68">
    <path clip-path="url(#pd1ccaf2e8a)" d="M 341.509673 241.58175 
L 345.631852 241.58175 
L 345.631852 241.58175 
L 341.509673 241.58175 
z
" style="fill:#e24a33;opacity:0.4;"/>
   </g>
   <g id="patch_69">
    <path clip-path="url(#pd1ccaf2e8a)" d="M 345.631852 241.58175 
L 349.754031 241.58175 
L 349.754031 241.58175 
L 345.631852 241.58175 
z
" style="fill:#e24a33;opacity:0.4;"/>
   </g>
   <g id="patch_70">
    <path clip-path="url(#pd1ccaf2e8a)" d="M 349.754031 241.58175 
L 353.87621 241.58175 
L 353.87621 241.58175 
L 349.754031 241.58175 
z
" style="fill:#e24a33;opacity:0.4;"/>
   </g>
   <g id="patch_71">
    <path clip-path="url(#pd1ccaf2e8a)" d="M 353.87621 241.58175 
L 357.998389 241.58175 
L 357.998389 241.58175 
L 353.87621 241.58175 
z
" style="fill:#e24a33;opacity:0.4;"/>
   </g>
   <g id="patch_72">
    <path clip-path="url(#pd1ccaf2e8a)" d="M 357.998389 241.58175 
L 362.120568 241.58175 
L 362.120568 224.324607 
L 357.998389 224.324607 
z
" style="fill:#e24a33;opacity:0.4;"/>
   </g>
   <g id="patch_73">
    <path clip-path="url(#pd1ccaf2e8a)" d="M 57.756932 241.58175 
L 62.104984 241.58175 
L 62.104984 51.753179 
L 57.756932 51.753179 
z
" style="fill:#348abd;opacity:0.4;"/>
   </g>
   <g id="patch_74">
    <path clip-path="url(#pd1ccaf2e8a)" d="M 62.104984 241.58175 
L 66.453036 241.58175 
L 66.453036 207.067464 
L 62.104984 207.067464 
z
" style="fill:#348abd;opacity:0.4;"/>
   </g>
   <g id="patch_75">
    <path clip-path="url(#pd1ccaf2e8a)" d="M 66.453036 241.58175 
L 70.801088 241.58175 
L 70.801088 138.038893 
L 66.453036 138.038893 
z
" style="fill:#348abd;opacity:0.4;"/>
   </g>
   <g id="patch_76">
    <path clip-path="url(#pd1ccaf2e8a)" d="M 70.801088 241.58175 
L 75.14914 241.58175 
L 75.14914 224.324607 
L 70.801088 224.324607 
z
" style="fill:#348abd;opacity:0.4;"/>
   </g>
   <g id="patch_77">
    <path clip-path="url(#pd1ccaf2e8a)" d="M 75.14914 241.58175 
L 79.497192 241.58175 
L 79.497192 120.78175 
L 75.14914 120.78175 
z
" style="fill:#348abd;opacity:0.4;"/>
   </g>
   <g id="patch_78">
    <path clip-path="url(#pd1ccaf2e8a)" d="M 79.497192 241.58175 
L 83.845244 241.58175 
L 83.845244 189.810321 
L 79.497192 189.810321 
z
" style="fill:#348abd;opacity:0.4;"/>
   </g>
   <g id="patch_79">
    <path clip-path="url(#pd1ccaf2e8a)" d="M 83.845244 241.58175 
L 88.193295 241.58175 
L 88.193295 155.296036 
L 83.845244 155.296036 
z
" style="fill:#348abd;opacity:0.4;"/>
   </g>
   <g id="patch_80">
    <path clip-path="url(#pd1ccaf2e8a)" d="M 88.193295 241.58175 
L 92.541347 241.58175 
L 92.541347 189.810321 
L 88.193295 189.810321 
z
" style="fill:#348abd;opacity:0.4;"/>
   </g>
   <g id="patch_81">
    <path clip-path="url(#pd1ccaf2e8a)" d="M 92.541347 241.58175 
L 96.889399 241.58175 
L 96.889399 241.58175 
L 92.541347 241.58175 
z
" style="fill:#348abd;opacity:0.4;"/>
   </g>
   <g id="patch_82">
    <path clip-path="url(#pd1ccaf2e8a)" d="M 96.889399 241.58175 
L 101.237451 241.58175 
L 101.237451 155.296036 
L 96.889399 155.296036 
z
" style="fill:#348abd;opacity:0.4;"/>
   </g>
   <g id="patch_83">
    <path clip-path="url(#pd1ccaf2e8a)" d="M 101.237451 241.58175 
L 105.585503 241.58175 
L 105.585503 138.038893 
L 101.237451 138.038893 
z
" style="fill:#348abd;opacity:0.4;"/>
   </g>
   <g id="patch_84">
    <path clip-path="url(#pd1ccaf2e8a)" d="M 105.585503 241.58175 
L 109.933555 241.58175 
L 109.933555 241.58175 
L 105.585503 241.58175 
z
" style="fill:#348abd;opacity:0.4;"/>
   </g>
   <g id="patch_85">
    <path clip-path="url(#pd1ccaf2e8a)" d="M 109.933555 241.58175 
L 114.281607 241.58175 
L 114.281607 189.810321 
L 109.933555 189.810321 
z
" style="fill:#348abd;opacity:0.4;"/>
   </g>
   <g id="patch_86">
    <path clip-path="url(#pd1ccaf2e8a)" d="M 114.281607 241.58175 
L 118.629659 241.58175 
L 118.629659 207.067464 
L 114.281607 207.067464 
z
" style="fill:#348abd;opacity:0.4;"/>
   </g>
   <g id="patch_87">
    <path clip-path="url(#pd1ccaf2e8a)" d="M 118.629659 241.58175 
L 122.977711 241.58175 
L 122.977711 207.067464 
L 118.629659 207.067464 
z
" style="fill:#348abd;opacity:0.4;"/>
   </g>
   <g id="patch_88">
    <path clip-path="url(#pd1ccaf2e8a)" d="M 122.977711 241.58175 
L 127.325763 241.58175 
L 127.325763 241.58175 
L 122.977711 241.58175 
z
" style="fill:#348abd;opacity:0.4;"/>
   </g>
   <g id="patch_89">
    <path clip-path="url(#pd1ccaf2e8a)" d="M 127.325763 241.58175 
L 131.673815 241.58175 
L 131.673815 207.067464 
L 127.325763 207.067464 
z
" style="fill:#348abd;opacity:0.4;"/>
   </g>
   <g id="patch_90">
    <path clip-path="url(#pd1ccaf2e8a)" d="M 131.673815 241.58175 
L 136.021867 241.58175 
L 136.021867 224.324607 
L 131.673815 224.324607 
z
" style="fill:#348abd;opacity:0.4;"/>
   </g>
   <g id="patch_91">
    <path clip-path="url(#pd1ccaf2e8a)" d="M 136.021867 241.58175 
L 140.369919 241.58175 
L 140.369919 207.067464 
L 136.021867 207.067464 
z
" style="fill:#348abd;opacity:0.4;"/>
   </g>
   <g id="patch_92">
    <path clip-path="url(#pd1ccaf2e8a)" d="M 140.369919 241.58175 
L 144.717971 241.58175 
L 144.717971 224.324607 
L 140.369919 224.324607 
z
" style="fill:#348abd;opacity:0.4;"/>
   </g>
   <g id="patch_93">
    <path clip-path="url(#pd1ccaf2e8a)" d="M 144.717971 241.58175 
L 149.066023 241.58175 
L 149.066023 224.324607 
L 144.717971 224.324607 
z
" style="fill:#348abd;opacity:0.4;"/>
   </g>
   <g id="patch_94">
    <path clip-path="url(#pd1ccaf2e8a)" d="M 149.066023 241.58175 
L 153.414075 241.58175 
L 153.414075 224.324607 
L 149.066023 224.324607 
z
" style="fill:#348abd;opacity:0.4;"/>
   </g>
   <g id="patch_95">
    <path clip-path="url(#pd1ccaf2e8a)" d="M 153.414075 241.58175 
L 157.762127 241.58175 
L 157.762127 241.58175 
L 153.414075 241.58175 
z
" style="fill:#348abd;opacity:0.4;"/>
   </g>
   <g id="patch_96">
    <path clip-path="url(#pd1ccaf2e8a)" d="M 157.762127 241.58175 
L 162.110179 241.58175 
L 162.110179 207.067464 
L 157.762127 207.067464 
z
" style="fill:#348abd;opacity:0.4;"/>
   </g>
   <g id="patch_97">
    <path clip-path="url(#pd1ccaf2e8a)" d="M 162.110179 241.58175 
L 166.458231 241.58175 
L 166.458231 241.58175 
L 162.110179 241.58175 
z
" style="fill:#348abd;opacity:0.4;"/>
   </g>
   <g id="patch_98">
    <path clip-path="url(#pd1ccaf2e8a)" d="M 166.458231 241.58175 
L 170.806282 241.58175 
L 170.806282 224.324607 
L 166.458231 224.324607 
z
" style="fill:#348abd;opacity:0.4;"/>
   </g>
   <g id="patch_99">
    <path clip-path="url(#pd1ccaf2e8a)" d="M 170.806282 241.58175 
L 175.154334 241.58175 
L 175.154334 241.58175 
L 170.806282 241.58175 
z
" style="fill:#348abd;opacity:0.4;"/>
   </g>
   <g id="patch_100">
    <path clip-path="url(#pd1ccaf2e8a)" d="M 175.154334 241.58175 
L 179.502386 241.58175 
L 179.502386 224.324607 
L 175.154334 224.324607 
z
" style="fill:#348abd;opacity:0.4;"/>
   </g>
   <g id="patch_101">
    <path clip-path="url(#pd1ccaf2e8a)" d="M 179.502386 241.58175 
L 183.850438 241.58175 
L 183.850438 241.58175 
L 179.502386 241.58175 
z
" style="fill:#348abd;opacity:0.4;"/>
   </g>
   <g id="patch_102">
    <path clip-path="url(#pd1ccaf2e8a)" d="M 183.850438 241.58175 
L 188.19849 241.58175 
L 188.19849 241.58175 
L 183.850438 241.58175 
z
" style="fill:#348abd;opacity:0.4;"/>
   </g>
   <g id="patch_103">
    <path clip-path="url(#pd1ccaf2e8a)" d="M 188.19849 241.58175 
L 192.546542 241.58175 
L 192.546542 241.58175 
L 188.19849 241.58175 
z
" style="fill:#348abd;opacity:0.4;"/>
   </g>
   <g id="patch_104">
    <path clip-path="url(#pd1ccaf2e8a)" d="M 192.546542 241.58175 
L 196.894594 241.58175 
L 196.894594 241.58175 
L 192.546542 241.58175 
z
" style="fill:#348abd;opacity:0.4;"/>
   </g>
   <g id="patch_105">
    <path clip-path="url(#pd1ccaf2e8a)" d="M 196.894594 241.58175 
L 201.242646 241.58175 
L 201.242646 241.58175 
L 196.894594 241.58175 
z
" style="fill:#348abd;opacity:0.4;"/>
   </g>
   <g id="patch_106">
    <path clip-path="url(#pd1ccaf2e8a)" d="M 201.242646 241.58175 
L 205.590698 241.58175 
L 205.590698 241.58175 
L 201.242646 241.58175 
z
" style="fill:#348abd;opacity:0.4;"/>
   </g>
   <g id="patch_107">
    <path clip-path="url(#pd1ccaf2e8a)" d="M 205.590698 241.58175 
L 209.93875 241.58175 
L 209.93875 224.324607 
L 205.590698 224.324607 
z
" style="fill:#348abd;opacity:0.4;"/>
   </g>
   <g id="patch_108">
    <path clip-path="url(#pd1ccaf2e8a)" d="M 209.93875 241.58175 
L 214.286802 241.58175 
L 214.286802 241.58175 
L 209.93875 241.58175 
z
" style="fill:#348abd;opacity:0.4;"/>
   </g>
   <g id="patch_109">
    <path clip-path="url(#pd1ccaf2e8a)" d="M 214.286802 241.58175 
L 218.634854 241.58175 
L 218.634854 241.58175 
L 214.286802 241.58175 
z
" style="fill:#348abd;opacity:0.4;"/>
   </g>
   <g id="patch_110">
    <path clip-path="url(#pd1ccaf2e8a)" d="M 218.634854 241.58175 
L 222.982906 241.58175 
L 222.982906 241.58175 
L 218.634854 241.58175 
z
" style="fill:#348abd;opacity:0.4;"/>
   </g>
   <g id="patch_111">
    <path clip-path="url(#pd1ccaf2e8a)" d="M 222.982906 241.58175 
L 227.330958 241.58175 
L 227.330958 241.58175 
L 222.982906 241.58175 
z
" style="fill:#348abd;opacity:0.4;"/>
   </g>
   <g id="patch_112">
    <path clip-path="url(#pd1ccaf2e8a)" d="M 227.330958 241.58175 
L 231.67901 241.58175 
L 231.67901 241.58175 
L 227.330958 241.58175 
z
" style="fill:#348abd;opacity:0.4;"/>
   </g>
   <g id="patch_113">
    <path clip-path="url(#pd1ccaf2e8a)" d="M 231.67901 241.58175 
L 236.027062 241.58175 
L 236.027062 241.58175 
L 231.67901 241.58175 
z
" style="fill:#348abd;opacity:0.4;"/>
   </g>
   <g id="patch_114">
    <path clip-path="url(#pd1ccaf2e8a)" d="M 236.027062 241.58175 
L 240.375114 241.58175 
L 240.375114 241.58175 
L 236.027062 241.58175 
z
" style="fill:#348abd;opacity:0.4;"/>
   </g>
   <g id="patch_115">
    <path clip-path="url(#pd1ccaf2e8a)" d="M 240.375114 241.58175 
L 244.723166 241.58175 
L 244.723166 241.58175 
L 240.375114 241.58175 
z
" style="fill:#348abd;opacity:0.4;"/>
   </g>
   <g id="patch_116">
    <path clip-path="url(#pd1ccaf2e8a)" d="M 244.723166 241.58175 
L 249.071218 241.58175 
L 249.071218 241.58175 
L 244.723166 241.58175 
z
" style="fill:#348abd;opacity:0.4;"/>
   </g>
   <g id="patch_117">
    <path clip-path="url(#pd1ccaf2e8a)" d="M 249.071218 241.58175 
L 253.419269 241.58175 
L 253.419269 241.58175 
L 249.071218 241.58175 
z
" style="fill:#348abd;opacity:0.4;"/>
   </g>
   <g id="patch_118">
    <path clip-path="url(#pd1ccaf2e8a)" d="M 253.419269 241.58175 
L 257.767321 241.58175 
L 257.767321 241.58175 
L 253.419269 241.58175 
z
" style="fill:#348abd;opacity:0.4;"/>
   </g>
   <g id="patch_119">
    <path clip-path="url(#pd1ccaf2e8a)" d="M 257.767321 241.58175 
L 262.115373 241.58175 
L 262.115373 241.58175 
L 257.767321 241.58175 
z
" style="fill:#348abd;opacity:0.4;"/>
   </g>
   <g id="patch_120">
    <path clip-path="url(#pd1ccaf2e8a)" d="M 262.115373 241.58175 
L 266.463425 241.58175 
L 266.463425 241.58175 
L 262.115373 241.58175 
z
" style="fill:#348abd;opacity:0.4;"/>
   </g>
   <g id="patch_121">
    <path clip-path="url(#pd1ccaf2e8a)" d="M 266.463425 241.58175 
L 270.811477 241.58175 
L 270.811477 241.58175 
L 266.463425 241.58175 
z
" style="fill:#348abd;opacity:0.4;"/>
   </g>
   <g id="patch_122">
    <path clip-path="url(#pd1ccaf2e8a)" d="M 270.811477 241.58175 
L 275.159529 241.58175 
L 275.159529 241.58175 
L 270.811477 241.58175 
z
" style="fill:#348abd;opacity:0.4;"/>
   </g>
   <g id="patch_123">
    <path clip-path="url(#pd1ccaf2e8a)" d="M 275.159529 241.58175 
L 279.507581 241.58175 
L 279.507581 241.58175 
L 275.159529 241.58175 
z
" style="fill:#348abd;opacity:0.4;"/>
   </g>
   <g id="patch_124">
    <path clip-path="url(#pd1ccaf2e8a)" d="M 279.507581 241.58175 
L 283.855633 241.58175 
L 283.855633 241.58175 
L 279.507581 241.58175 
z
" style="fill:#348abd;opacity:0.4;"/>
   </g>
   <g id="patch_125">
    <path clip-path="url(#pd1ccaf2e8a)" d="M 283.855633 241.58175 
L 288.203685 241.58175 
L 288.203685 241.58175 
L 283.855633 241.58175 
z
" style="fill:#348abd;opacity:0.4;"/>
   </g>
   <g id="patch_126">
    <path clip-path="url(#pd1ccaf2e8a)" d="M 288.203685 241.58175 
L 292.551737 241.58175 
L 292.551737 241.58175 
L 288.203685 241.58175 
z
" style="fill:#348abd;opacity:0.4;"/>
   </g>
   <g id="patch_127">
    <path clip-path="url(#pd1ccaf2e8a)" d="M 292.551737 241.58175 
L 296.899789 241.58175 
L 296.899789 241.58175 
L 292.551737 241.58175 
z
" style="fill:#348abd;opacity:0.4;"/>
   </g>
   <g id="patch_128">
    <path clip-path="url(#pd1ccaf2e8a)" d="M 296.899789 241.58175 
L 301.247841 241.58175 
L 301.247841 241.58175 
L 296.899789 241.58175 
z
" style="fill:#348abd;opacity:0.4;"/>
   </g>
   <g id="patch_129">
    <path clip-path="url(#pd1ccaf2e8a)" d="M 301.247841 241.58175 
L 305.595893 241.58175 
L 305.595893 241.58175 
L 301.247841 241.58175 
z
" style="fill:#348abd;opacity:0.4;"/>
   </g>
   <g id="patch_130">
    <path clip-path="url(#pd1ccaf2e8a)" d="M 305.595893 241.58175 
L 309.943945 241.58175 
L 309.943945 241.58175 
L 305.595893 241.58175 
z
" style="fill:#348abd;opacity:0.4;"/>
   </g>
   <g id="patch_131">
    <path clip-path="url(#pd1ccaf2e8a)" d="M 309.943945 241.58175 
L 314.291997 241.58175 
L 314.291997 241.58175 
L 309.943945 241.58175 
z
" style="fill:#348abd;opacity:0.4;"/>
   </g>
   <g id="patch_132">
    <path clip-path="url(#pd1ccaf2e8a)" d="M 314.291997 241.58175 
L 318.640049 241.58175 
L 318.640049 241.58175 
L 314.291997 241.58175 
z
" style="fill:#348abd;opacity:0.4;"/>
   </g>
   <g id="patch_133">
    <path clip-path="url(#pd1ccaf2e8a)" d="M 318.640049 241.58175 
L 322.988101 241.58175 
L 322.988101 241.58175 
L 318.640049 241.58175 
z
" style="fill:#348abd;opacity:0.4;"/>
   </g>
   <g id="patch_134">
    <path clip-path="url(#pd1ccaf2e8a)" d="M 322.988101 241.58175 
L 327.336153 241.58175 
L 327.336153 241.58175 
L 322.988101 241.58175 
z
" style="fill:#348abd;opacity:0.4;"/>
   </g>
   <g id="patch_135">
    <path clip-path="url(#pd1ccaf2e8a)" d="M 327.336153 241.58175 
L 331.684205 241.58175 
L 331.684205 241.58175 
L 327.336153 241.58175 
z
" style="fill:#348abd;opacity:0.4;"/>
   </g>
   <g id="patch_136">
    <path clip-path="url(#pd1ccaf2e8a)" d="M 331.684205 241.58175 
L 336.032256 241.58175 
L 336.032256 241.58175 
L 331.684205 241.58175 
z
" style="fill:#348abd;opacity:0.4;"/>
   </g>
   <g id="patch_137">
    <path clip-path="url(#pd1ccaf2e8a)" d="M 336.032256 241.58175 
L 340.380308 241.58175 
L 340.380308 241.58175 
L 336.032256 241.58175 
z
" style="fill:#348abd;opacity:0.4;"/>
   </g>
   <g id="patch_138">
    <path clip-path="url(#pd1ccaf2e8a)" d="M 340.380308 241.58175 
L 344.72836 241.58175 
L 344.72836 241.58175 
L 340.380308 241.58175 
z
" style="fill:#348abd;opacity:0.4;"/>
   </g>
   <g id="patch_139">
    <path clip-path="url(#pd1ccaf2e8a)" d="M 344.72836 241.58175 
L 349.076412 241.58175 
L 349.076412 241.58175 
L 344.72836 241.58175 
z
" style="fill:#348abd;opacity:0.4;"/>
   </g>
   <g id="patch_140">
    <path clip-path="url(#pd1ccaf2e8a)" d="M 349.076412 241.58175 
L 353.424464 241.58175 
L 353.424464 241.58175 
L 349.076412 241.58175 
z
" style="fill:#348abd;opacity:0.4;"/>
   </g>
   <g id="patch_141">
    <path clip-path="url(#pd1ccaf2e8a)" d="M 353.424464 241.58175 
L 357.772516 241.58175 
L 357.772516 241.58175 
L 353.424464 241.58175 
z
" style="fill:#348abd;opacity:0.4;"/>
   </g>
   <g id="patch_142">
    <path clip-path="url(#pd1ccaf2e8a)" d="M 357.772516 241.58175 
L 362.120568 241.58175 
L 362.120568 224.324607 
L 357.772516 224.324607 
z
" style="fill:#348abd;opacity:0.4;"/>
   </g>
   <g id="patch_143">
    <path d="M 42.53875 241.58175 
L 42.53875 24.14175 
" style="fill:none;stroke:#ffffff;stroke-linecap:square;stroke-linejoin:miter;"/>
   </g>
   <g id="patch_144">
    <path d="M 377.33875 241.58175 
L 377.33875 24.14175 
" style="fill:none;stroke:#ffffff;stroke-linecap:square;stroke-linejoin:miter;"/>
   </g>
   <g id="patch_145">
    <path d="M 42.53875 241.58175 
L 377.33875 241.58175 
" style="fill:none;stroke:#ffffff;stroke-linecap:square;stroke-linejoin:miter;"/>
   </g>
   <g id="patch_146">
    <path d="M 42.53875 24.14175 
L 377.33875 24.14175 
" style="fill:none;stroke:#ffffff;stroke-linecap:square;stroke-linejoin:miter;"/>
   </g>
   <g id="text_19">
    <!-- Comparing Hybrid and K-Means Approaches -->
    <defs>
     <path d="M 30.609375 48.390625 
Q 23.390625 48.390625 19.1875 42.75 
Q 14.984375 37.109375 14.984375 27.296875 
Q 14.984375 17.484375 19.15625 11.84375 
Q 23.34375 6.203125 30.609375 6.203125 
Q 37.796875 6.203125 41.984375 11.859375 
Q 46.1875 17.53125 46.1875 27.296875 
Q 46.1875 37.015625 41.984375 42.703125 
Q 37.796875 48.390625 30.609375 48.390625 
z
M 30.609375 56 
Q 42.328125 56 49.015625 48.375 
Q 55.71875 40.765625 55.71875 27.296875 
Q 55.71875 13.875 49.015625 6.21875 
Q 42.328125 -1.421875 30.609375 -1.421875 
Q 18.84375 -1.421875 12.171875 6.21875 
Q 5.515625 13.875 5.515625 27.296875 
Q 5.515625 40.765625 12.171875 48.375 
Q 18.84375 56 30.609375 56 
z
" id="DejaVuSans-111"/>
     <path d="M 52 44.1875 
Q 55.375 50.25 60.0625 53.125 
Q 64.75 56 71.09375 56 
Q 79.640625 56 84.28125 50.015625 
Q 88.921875 44.046875 88.921875 33.015625 
L 88.921875 0 
L 79.890625 0 
L 79.890625 32.71875 
Q 79.890625 40.578125 77.09375 44.375 
Q 74.3125 48.1875 68.609375 48.1875 
Q 61.625 48.1875 57.5625 43.546875 
Q 53.515625 38.921875 53.515625 30.90625 
L 53.515625 0 
L 44.484375 0 
L 44.484375 32.71875 
Q 44.484375 40.625 41.703125 44.40625 
Q 38.921875 48.1875 33.109375 48.1875 
Q 26.21875 48.1875 22.15625 43.53125 
Q 18.109375 38.875 18.109375 30.90625 
L 18.109375 0 
L 9.078125 0 
L 9.078125 54.6875 
L 18.109375 54.6875 
L 18.109375 46.1875 
Q 21.1875 51.21875 25.484375 53.609375 
Q 29.78125 56 35.6875 56 
Q 41.65625 56 45.828125 52.96875 
Q 50 49.953125 52 44.1875 
z
" id="DejaVuSans-109"/>
     <path d="M 18.109375 8.203125 
L 18.109375 -20.796875 
L 9.078125 -20.796875 
L 9.078125 54.6875 
L 18.109375 54.6875 
L 18.109375 46.390625 
Q 20.953125 51.265625 25.265625 53.625 
Q 29.59375 56 35.59375 56 
Q 45.5625 56 51.78125 48.09375 
Q 58.015625 40.1875 58.015625 27.296875 
Q 58.015625 14.40625 51.78125 6.484375 
Q 45.5625 -1.421875 35.59375 -1.421875 
Q 29.59375 -1.421875 25.265625 0.953125 
Q 20.953125 3.328125 18.109375 8.203125 
z
M 48.6875 27.296875 
Q 48.6875 37.203125 44.609375 42.84375 
Q 40.53125 48.484375 33.40625 48.484375 
Q 26.265625 48.484375 22.1875 42.84375 
Q 18.109375 37.203125 18.109375 27.296875 
Q 18.109375 17.390625 22.1875 11.75 
Q 26.265625 6.109375 33.40625 6.109375 
Q 40.53125 6.109375 44.609375 11.75 
Q 48.6875 17.390625 48.6875 27.296875 
z
" id="DejaVuSans-112"/>
     <path d="M 34.28125 27.484375 
Q 23.390625 27.484375 19.1875 25 
Q 14.984375 22.515625 14.984375 16.5 
Q 14.984375 11.71875 18.140625 8.90625 
Q 21.296875 6.109375 26.703125 6.109375 
Q 34.1875 6.109375 38.703125 11.40625 
Q 43.21875 16.703125 43.21875 25.484375 
L 43.21875 27.484375 
z
M 52.203125 31.203125 
L 52.203125 0 
L 43.21875 0 
L 43.21875 8.296875 
Q 40.140625 3.328125 35.546875 0.953125 
Q 30.953125 -1.421875 24.3125 -1.421875 
Q 15.921875 -1.421875 10.953125 3.296875 
Q 6 8.015625 6 15.921875 
Q 6 25.140625 12.171875 29.828125 
Q 18.359375 34.515625 30.609375 34.515625 
L 43.21875 34.515625 
L 43.21875 35.40625 
Q 43.21875 41.609375 39.140625 45 
Q 35.0625 48.390625 27.6875 48.390625 
Q 23 48.390625 18.546875 47.265625 
Q 14.109375 46.140625 10.015625 43.890625 
L 10.015625 52.203125 
Q 14.9375 54.109375 19.578125 55.046875 
Q 24.21875 56 28.609375 56 
Q 40.484375 56 46.34375 49.84375 
Q 52.203125 43.703125 52.203125 31.203125 
z
" id="DejaVuSans-97"/>
     <path d="M 45.40625 27.984375 
Q 45.40625 37.75 41.375 43.109375 
Q 37.359375 48.484375 30.078125 48.484375 
Q 22.859375 48.484375 18.828125 43.109375 
Q 14.796875 37.75 14.796875 27.984375 
Q 14.796875 18.265625 18.828125 12.890625 
Q 22.859375 7.515625 30.078125 7.515625 
Q 37.359375 7.515625 41.375 12.890625 
Q 45.40625 18.265625 45.40625 27.984375 
z
M 54.390625 6.78125 
Q 54.390625 -7.171875 48.1875 -13.984375 
Q 42 -20.796875 29.203125 -20.796875 
Q 24.46875 -20.796875 20.265625 -20.09375 
Q 16.0625 -19.390625 12.109375 -17.921875 
L 12.109375 -9.1875 
Q 16.0625 -11.328125 19.921875 -12.34375 
Q 23.78125 -13.375 27.78125 -13.375 
Q 36.625 -13.375 41.015625 -8.765625 
Q 45.40625 -4.15625 45.40625 5.171875 
L 45.40625 9.625 
Q 42.625 4.78125 38.28125 2.390625 
Q 33.9375 0 27.875 0 
Q 17.828125 0 11.671875 7.65625 
Q 5.515625 15.328125 5.515625 27.984375 
Q 5.515625 40.671875 11.671875 48.328125 
Q 17.828125 56 27.875 56 
Q 33.9375 56 38.28125 53.609375 
Q 42.625 51.21875 45.40625 46.390625 
L 45.40625 54.6875 
L 54.390625 54.6875 
z
" id="DejaVuSans-103"/>
     <path d="M 9.8125 72.90625 
L 19.671875 72.90625 
L 19.671875 43.015625 
L 55.515625 43.015625 
L 55.515625 72.90625 
L 65.375 72.90625 
L 65.375 0 
L 55.515625 0 
L 55.515625 34.71875 
L 19.671875 34.71875 
L 19.671875 0 
L 9.8125 0 
z
" id="DejaVuSans-72"/>
     <path d="M 48.6875 27.296875 
Q 48.6875 37.203125 44.609375 42.84375 
Q 40.53125 48.484375 33.40625 48.484375 
Q 26.265625 48.484375 22.1875 42.84375 
Q 18.109375 37.203125 18.109375 27.296875 
Q 18.109375 17.390625 22.1875 11.75 
Q 26.265625 6.109375 33.40625 6.109375 
Q 40.53125 6.109375 44.609375 11.75 
Q 48.6875 17.390625 48.6875 27.296875 
z
M 18.109375 46.390625 
Q 20.953125 51.265625 25.265625 53.625 
Q 29.59375 56 35.59375 56 
Q 45.5625 56 51.78125 48.09375 
Q 58.015625 40.1875 58.015625 27.296875 
Q 58.015625 14.40625 51.78125 6.484375 
Q 45.5625 -1.421875 35.59375 -1.421875 
Q 29.59375 -1.421875 25.265625 0.953125 
Q 20.953125 3.328125 18.109375 8.203125 
L 18.109375 0 
L 9.078125 0 
L 9.078125 75.984375 
L 18.109375 75.984375 
z
" id="DejaVuSans-98"/>
     <path d="M 45.40625 46.390625 
L 45.40625 75.984375 
L 54.390625 75.984375 
L 54.390625 0 
L 45.40625 0 
L 45.40625 8.203125 
Q 42.578125 3.328125 38.25 0.953125 
Q 33.9375 -1.421875 27.875 -1.421875 
Q 17.96875 -1.421875 11.734375 6.484375 
Q 5.515625 14.40625 5.515625 27.296875 
Q 5.515625 40.1875 11.734375 48.09375 
Q 17.96875 56 27.875 56 
Q 33.9375 56 38.25 53.625 
Q 42.578125 51.265625 45.40625 46.390625 
z
M 14.796875 27.296875 
Q 14.796875 17.390625 18.875 11.75 
Q 22.953125 6.109375 30.078125 6.109375 
Q 37.203125 6.109375 41.296875 11.75 
Q 45.40625 17.390625 45.40625 27.296875 
Q 45.40625 37.203125 41.296875 42.84375 
Q 37.203125 48.484375 30.078125 48.484375 
Q 22.953125 48.484375 18.875 42.84375 
Q 14.796875 37.203125 14.796875 27.296875 
z
" id="DejaVuSans-100"/>
     <path d="M 9.8125 72.90625 
L 19.671875 72.90625 
L 19.671875 42.09375 
L 52.390625 72.90625 
L 65.09375 72.90625 
L 28.90625 38.921875 
L 67.671875 0 
L 54.6875 0 
L 19.671875 35.109375 
L 19.671875 0 
L 9.8125 0 
z
" id="DejaVuSans-75"/>
     <path d="M 4.890625 31.390625 
L 31.203125 31.390625 
L 31.203125 23.390625 
L 4.890625 23.390625 
z
" id="DejaVuSans-45"/>
     <path d="M 9.8125 72.90625 
L 24.515625 72.90625 
L 43.109375 23.296875 
L 61.8125 72.90625 
L 76.515625 72.90625 
L 76.515625 0 
L 66.890625 0 
L 66.890625 64.015625 
L 48.09375 14.015625 
L 38.1875 14.015625 
L 19.390625 64.015625 
L 19.390625 0 
L 9.8125 0 
z
" id="DejaVuSans-77"/>
     <path d="M 34.1875 63.1875 
L 20.796875 26.90625 
L 47.609375 26.90625 
z
M 28.609375 72.90625 
L 39.796875 72.90625 
L 67.578125 0 
L 57.328125 0 
L 50.6875 18.703125 
L 17.828125 18.703125 
L 11.1875 0 
L 0.78125 0 
z
" id="DejaVuSans-65"/>
     <path d="M 54.890625 33.015625 
L 54.890625 0 
L 45.90625 0 
L 45.90625 32.71875 
Q 45.90625 40.484375 42.875 44.328125 
Q 39.84375 48.1875 33.796875 48.1875 
Q 26.515625 48.1875 22.3125 43.546875 
Q 18.109375 38.921875 18.109375 30.90625 
L 18.109375 0 
L 9.078125 0 
L 9.078125 75.984375 
L 18.109375 75.984375 
L 18.109375 46.1875 
Q 21.34375 51.125 25.703125 53.5625 
Q 30.078125 56 35.796875 56 
Q 45.21875 56 50.046875 50.171875 
Q 54.890625 44.34375 54.890625 33.015625 
z
" id="DejaVuSans-104"/>
    </defs>
    <g transform="translate(50.716375 18.14175)scale(0.144 -0.144)">
     <use xlink:href="#DejaVuSans-67"/>
     <use x="69.824219" xlink:href="#DejaVuSans-111"/>
     <use x="131.005859" xlink:href="#DejaVuSans-109"/>
     <use x="228.417969" xlink:href="#DejaVuSans-112"/>
     <use x="291.894531" xlink:href="#DejaVuSans-97"/>
     <use x="353.173828" xlink:href="#DejaVuSans-114"/>
     <use x="394.287109" xlink:href="#DejaVuSans-105"/>
     <use x="422.070312" xlink:href="#DejaVuSans-110"/>
     <use x="485.449219" xlink:href="#DejaVuSans-103"/>
     <use x="548.925781" xlink:href="#DejaVuSans-32"/>
     <use x="580.712891" xlink:href="#DejaVuSans-72"/>
     <use x="655.908203" xlink:href="#DejaVuSans-121"/>
     <use x="715.087891" xlink:href="#DejaVuSans-98"/>
     <use x="778.564453" xlink:href="#DejaVuSans-114"/>
     <use x="819.677734" xlink:href="#DejaVuSans-105"/>
     <use x="847.460938" xlink:href="#DejaVuSans-100"/>
     <use x="910.9375" xlink:href="#DejaVuSans-32"/>
     <use x="942.724609" xlink:href="#DejaVuSans-97"/>
     <use x="1004.003906" xlink:href="#DejaVuSans-110"/>
     <use x="1067.382812" xlink:href="#DejaVuSans-100"/>
     <use x="1130.859375" xlink:href="#DejaVuSans-32"/>
     <use x="1162.646484" xlink:href="#DejaVuSans-75"/>
     <use x="1228.066406" xlink:href="#DejaVuSans-45"/>
     <use x="1264.150391" xlink:href="#DejaVuSans-77"/>
     <use x="1350.429688" xlink:href="#DejaVuSans-101"/>
     <use x="1411.953125" xlink:href="#DejaVuSans-97"/>
     <use x="1473.232422" xlink:href="#DejaVuSans-110"/>
     <use x="1536.611328" xlink:href="#DejaVuSans-115"/>
     <use x="1588.710938" xlink:href="#DejaVuSans-32"/>
     <use x="1620.498047" xlink:href="#DejaVuSans-65"/>
     <use x="1688.90625" xlink:href="#DejaVuSans-112"/>
     <use x="1752.382812" xlink:href="#DejaVuSans-112"/>
     <use x="1815.859375" xlink:href="#DejaVuSans-114"/>
     <use x="1856.941406" xlink:href="#DejaVuSans-111"/>
     <use x="1918.123047" xlink:href="#DejaVuSans-97"/>
     <use x="1979.402344" xlink:href="#DejaVuSans-99"/>
     <use x="2034.382812" xlink:href="#DejaVuSans-104"/>
     <use x="2097.761719" xlink:href="#DejaVuSans-101"/>
     <use x="2159.285156" xlink:href="#DejaVuSans-115"/>
    </g>
   </g>
   <g id="legend_1">
    <g id="patch_147">
     <path d="M 272.02625 61.498 
L 370.33875 61.498 
Q 372.33875 61.498 372.33875 59.498 
L 372.33875 31.14175 
Q 372.33875 29.14175 370.33875 29.14175 
L 272.02625 29.14175 
Q 270.02625 29.14175 270.02625 31.14175 
L 270.02625 59.498 
Q 270.02625 61.498 272.02625 61.498 
z
" style="fill:#e5e5e5;opacity:0.8;stroke:#cccccc;stroke-linejoin:miter;stroke-width:0.5;"/>
    </g>
    <g id="patch_148">
     <path d="M 274.02625 40.740187 
L 294.02625 40.740187 
L 294.02625 33.740187 
L 274.02625 33.740187 
z
" style="fill:#e24a33;opacity:0.4;"/>
    </g>
    <g id="text_20">
     <!-- Hybrid -->
     <g transform="translate(302.02625 40.740187)scale(0.1 -0.1)">
      <use xlink:href="#DejaVuSans-72"/>
      <use x="75.195312" xlink:href="#DejaVuSans-121"/>
      <use x="134.375" xlink:href="#DejaVuSans-98"/>
      <use x="197.851562" xlink:href="#DejaVuSans-114"/>
      <use x="238.964844" xlink:href="#DejaVuSans-105"/>
      <use x="266.748047" xlink:href="#DejaVuSans-100"/>
     </g>
    </g>
    <g id="patch_149">
     <path d="M 274.02625 55.418312 
L 294.02625 55.418312 
L 294.02625 48.418312 
L 274.02625 48.418312 
z
" style="fill:#348abd;opacity:0.4;"/>
    </g>
    <g id="text_21">
     <!-- K-Means (70) -->
     <defs>
      <path d="M 31 75.875 
Q 24.46875 64.65625 21.28125 53.65625 
Q 18.109375 42.671875 18.109375 31.390625 
Q 18.109375 20.125 21.3125 9.0625 
Q 24.515625 -2 31 -13.1875 
L 23.1875 -13.1875 
Q 15.875 -1.703125 12.234375 9.375 
Q 8.59375 20.453125 8.59375 31.390625 
Q 8.59375 42.28125 12.203125 53.3125 
Q 15.828125 64.359375 23.1875 75.875 
z
" id="DejaVuSans-40"/>
      <path d="M 8.015625 75.875 
L 15.828125 75.875 
Q 23.140625 64.359375 26.78125 53.3125 
Q 30.421875 42.28125 30.421875 31.390625 
Q 30.421875 20.453125 26.78125 9.375 
Q 23.140625 -1.703125 15.828125 -13.1875 
L 8.015625 -13.1875 
Q 14.5 -2 17.703125 9.0625 
Q 20.90625 20.125 20.90625 31.390625 
Q 20.90625 42.671875 17.703125 53.65625 
Q 14.5 64.65625 8.015625 75.875 
z
" id="DejaVuSans-41"/>
     </defs>
     <g transform="translate(302.02625 55.418312)scale(0.1 -0.1)">
      <use xlink:href="#DejaVuSans-75"/>
      <use x="65.419922" xlink:href="#DejaVuSans-45"/>
      <use x="101.503906" xlink:href="#DejaVuSans-77"/>
      <use x="187.783203" xlink:href="#DejaVuSans-101"/>
      <use x="249.306641" xlink:href="#DejaVuSans-97"/>
      <use x="310.585938" xlink:href="#DejaVuSans-110"/>
      <use x="373.964844" xlink:href="#DejaVuSans-115"/>
      <use x="426.064453" xlink:href="#DejaVuSans-32"/>
      <use x="457.851562" xlink:href="#DejaVuSans-40"/>
      <use x="496.865234" xlink:href="#DejaVuSans-55"/>
      <use x="560.488281" xlink:href="#DejaVuSans-48"/>
      <use x="624.111328" xlink:href="#DejaVuSans-41"/>
     </g>
    </g>
   </g>
  </g>
 </g>
 <defs>
  <clipPath id="pd1ccaf2e8a">
   <rect height="217.44" width="334.8" x="42.53875" y="24.14175"/>
  </clipPath>
 </defs>
</svg>